<svg xmlns="http://www.w3.org/2000/svg" viewBox="0 0 512 512">
  <defs>
    <linearGradient id="g" x1="0" y1="0" x2="1" y2="1">
      <stop offset="0%" stop-color="#ffe8f3"/>
      <stop offset="100%" stop-color="#ffd0e6"/>
    </linearGradient>
  </defs>
  <rect width="512" height="512" rx="110" fill="url(#g)"/>
  <circle cx="256" cy="290" r="128" fill="#fff"/>
  <circle cx="212" cy="286" r="12" fill="#4d3550"/>
  <circle cx="300" cy="286" r="12" fill="#4d3550"/>
  <ellipse cx="256" cy="322" rx="20" ry="12" fill="#ff7fb5"/>
  <path d="M160 194c26-45 78-60 113-24 39-37 90-22 118 25-26 7-51 24-66 49h-99c-14-25-39-42-66-50z" fill="#ff7fb5"/>
  <path d="M144 184l30 26 34-20-11 37 29 26-37-2-11 35-12-35-37 2 30-26z" fill="#fff"/>
  <text x="256" y="460" text-anchor="middle" font-size="56" font-family="Arial Rounded MT Bold, sans-serif" fill="#d94885">1+1</text>
</svg>
